<svg width="168" height="202" viewBox="0 0 168 202" fill="none" xmlns="http://www.w3.org/2000/svg">
<g filter="url(#filter0_d_2_17)">
<path d="M81.5795 30.1654C81.3779 29.8546 81.1993 29.576 81.0487 29.3305C80.9574 29.1806 80.8354 29.0649 80.6957 28.996C80.556 28.9272 80.404 28.9077 80.2561 28.9397C80.1083 28.9717 79.9702 29.0539 79.8568 29.1776C79.7434 29.3013 79.659 29.4616 79.6127 29.6412C79.1599 31.3821 78.4711 33.0111 77.5768 34.4562C77.6295 30.3415 76.9819 23.0807 72.2452 19.1701C72.1209 19.0673 71.9767 19.0088 71.8281 19.0009C71.6795 18.993 71.5319 19.036 71.4011 19.1253C71.2704 19.2146 71.1613 19.3468 71.0854 19.5079C71.0096 19.669 70.9699 19.853 70.9705 20.0403C70.9705 23.434 69.5263 27.0504 67.0156 29.9593C64.5864 32.7749 58.942 40.216 59.0005 48.4589C59.0391 53.8695 61.1055 61.2298 66.2775 64.696C66.3898 64.7716 66.5147 64.8133 66.642 64.8179C66.7694 64.8224 66.8959 64.7896 67.0115 64.7221C67.1271 64.6546 67.2287 64.5543 67.3082 64.4289C67.3878 64.3036 67.4431 64.1567 67.4699 63.9999C67.9504 61.7418 68.7423 59.6075 69.8094 57.6942C70.9697 55.3488 72.0666 53.1361 72.167 50.0397C72.1733 49.8411 72.2248 49.649 72.3155 49.4862C72.4061 49.3235 72.532 49.197 72.6782 49.1219C72.8244 49.0467 72.9846 49.0261 73.1399 49.0625C73.2951 49.0989 73.4387 49.1907 73.5536 49.327C76.4733 52.786 78.1932 57.7263 78.6228 63.7098C78.6366 63.8782 78.6831 64.0398 78.758 64.1804C78.833 64.3209 78.9342 64.4362 79.0527 64.5162C79.1713 64.5961 79.3036 64.6382 79.4381 64.6389C79.5726 64.6396 79.7052 64.5987 79.8242 64.5199C83.5413 62.0202 86.4618 57.2684 86.9276 49.9289C87.5908 39.4857 83.5306 33.1903 81.5795 30.1654Z" fill="url(#paint0_linear_2_17)"/>
</g>
<path d="M37.6 76.0343H40.68L43 85.6143L45.38 76.1143L49.12 75.8343L51.64 85.8943L53.98 76.0343H56.84L53.24 89.3543H49.74L47.16 78.8143L44.48 89.3543H41.02L37.6 76.0343ZM62.8084 89.6543C61.1418 89.6543 59.8284 89.1743 58.8684 88.2143C57.9218 87.2543 57.4484 85.921 57.4484 84.2143C57.4484 83.1076 57.6551 82.1476 58.0684 81.3343C58.4818 80.5076 59.0618 79.8743 59.8084 79.4343C60.5684 78.9943 61.4551 78.7743 62.4684 78.7743C63.9618 78.7743 65.1084 79.2543 65.9084 80.2143C66.7084 81.1743 67.1084 82.561 67.1084 84.3743C67.1084 84.681 67.1018 84.9076 67.0884 85.0543H60.2884C60.4218 85.761 60.7284 86.301 61.2084 86.6743C61.6884 87.0343 62.3351 87.2143 63.1484 87.2143C63.6418 87.2143 64.1551 87.1543 64.6884 87.0343C65.2218 86.901 65.6884 86.7276 66.0884 86.5143L66.5484 88.7743C66.0151 89.0543 65.4218 89.2676 64.7684 89.4143C64.1284 89.5743 63.4751 89.6543 62.8084 89.6543ZM64.4084 82.9343C64.3684 82.361 64.1684 81.9076 63.8084 81.5743C63.4484 81.2276 62.9684 81.0543 62.3684 81.0543C61.7951 81.0543 61.3218 81.221 60.9484 81.5543C60.5884 81.8876 60.3618 82.3476 60.2684 82.9343H64.4084ZM72.998 89.6543C71.9313 89.6543 70.6713 89.4943 69.218 89.1743V74.7543H71.998V80.0543C72.7846 79.201 73.7513 78.7743 74.898 78.7743C76.0713 78.7743 76.9913 79.221 77.658 80.1143C78.3246 80.9943 78.658 82.2276 78.658 83.8143C78.658 85.7076 78.1713 87.1543 77.198 88.1543C76.2246 89.1543 74.8246 89.6543 72.998 89.6543ZM73.298 87.1943C74.1246 87.1943 74.7513 86.921 75.178 86.3743C75.618 85.8276 75.838 85.0276 75.838 83.9743C75.838 83.1076 75.6913 82.4343 75.398 81.9543C75.118 81.4743 74.718 81.2343 74.198 81.2343C73.7713 81.2343 73.3713 81.3876 72.998 81.6943C72.6246 81.9876 72.2913 82.421 71.998 82.9943V87.0143C72.4113 87.1343 72.8446 87.1943 73.298 87.1943Z" fill="white"/>
<path d="M83.7009 78.5543H80.0609V76.0343H90.2209V78.5543H86.6209V89.3543H83.7009V78.5543ZM91.6336 76.0343H94.8336L97.9936 86.1943L101.134 76.0343H104.114L99.6336 89.3543H96.1336L91.6336 76.0343Z" fill="#FF6B59"/>
<defs>
<filter id="filter0_d_2_17" x="-21.0025" y="-3.85786" width="188.005" height="205.823" filterUnits="userSpaceOnUse" color-interpolation-filters="sRGB">
<feFlood flood-opacity="0" result="BackgroundImageFix"/>
<feColorMatrix in="SourceAlpha" type="matrix" values="0 0 0 0 0 0 0 0 0 0 0 0 0 0 0 0 0 0 127 0" result="hardAlpha"/>
<feOffset dy="57.1447"/>
<feGaussianBlur stdDeviation="40.0013"/>
<feColorMatrix type="matrix" values="0 0 0 0 1 0 0 0 0 0.419608 0 0 0 0 0.34902 0 0 0 0.24 0"/>
<feBlend mode="normal" in2="BackgroundImageFix" result="effect1_dropShadow_2_17"/>
<feBlend mode="normal" in="SourceGraphic" in2="effect1_dropShadow_2_17" result="shape"/>
</filter>
<linearGradient id="paint0_linear_2_17" x1="73" y1="27.7686" x2="90.5968" y2="51.1015" gradientUnits="userSpaceOnUse">
<stop stop-color="#FF6B59"/>
<stop offset="1" stop-color="#D35646"/>
</linearGradient>
</defs>
</svg>
