<svg width="26" height="24" viewBox="0 0 26 24" fill="none" xmlns="http://www.w3.org/2000/svg">
<path d="M11.5734 2.00861C12.0224 0.626643 13.9776 0.626643 14.4266 2.00861L15.8922 6.51925C16.2269 7.54931 17.1868 8.24671 18.2698 8.24671L23.0126 8.24671C24.4657 8.24671 25.0698 10.1061 23.8943 10.9602L20.0573 13.748C19.1811 14.3846 18.8144 15.513 19.1491 16.5431L20.6147 21.0537C21.0637 22.4357 19.482 23.5848 18.3064 22.7307L14.4695 19.943C13.5932 19.3064 12.4068 19.3064 11.5305 19.943L7.69355 22.7307C6.51798 23.5848 4.93626 22.4357 5.38529 21.0537L6.85089 16.5431C7.18557 15.513 6.81893 14.3846 5.94271 13.748L2.10573 10.9602C0.930156 10.1061 1.53432 8.24671 2.9874 8.24671L7.73018 8.24671C8.81324 8.24671 9.77313 7.54931 10.1078 6.51925L11.5734 2.00861Z" stroke="white"/>
</svg>
