<svg width="168" height="204" viewBox="0 0 168 204" fill="none" xmlns="http://www.w3.org/2000/svg">
<g filter="url(#filter0_d_2_16)">
<path d="M81.5795 31.3071C81.3779 30.9964 81.1993 30.7177 81.0487 30.4722C80.9574 30.3223 80.8354 30.2066 80.6957 30.1378C80.556 30.0689 80.404 30.0494 80.2561 30.0814C80.1083 30.1134 79.9702 30.1957 79.8568 30.3193C79.7434 30.443 79.659 30.6033 79.6127 30.783C79.1599 32.5238 78.4711 34.1528 77.5768 35.598C77.6295 31.4833 76.9819 24.2224 72.2452 20.3118C72.1209 20.209 71.9767 20.1505 71.8281 20.1426C71.6795 20.1348 71.5319 20.1777 71.4011 20.267C71.2704 20.3563 71.1613 20.4885 71.0854 20.6496C71.0096 20.8107 70.9699 20.9947 70.9705 21.182C70.9705 24.5757 69.5263 28.1921 67.0156 31.101C64.5864 33.9167 58.942 41.3577 59.0005 49.6006C59.0391 55.0113 61.1055 62.3715 66.2775 65.8377C66.3898 65.9133 66.5147 65.9551 66.642 65.9596C66.7694 65.9641 66.8959 65.9314 67.0115 65.8639C67.1271 65.7964 67.2287 65.696 67.3082 65.5707C67.3878 65.4453 67.4431 65.2984 67.4699 65.1416C67.9504 62.8835 68.7423 60.7492 69.8094 58.8359C70.9697 56.4906 72.0666 54.2778 72.167 51.1814C72.1733 50.9828 72.2248 50.7907 72.3155 50.628C72.4061 50.4652 72.532 50.3387 72.6782 50.2636C72.8244 50.1885 72.9846 50.1679 73.1399 50.2042C73.2951 50.2406 73.4387 50.3324 73.5536 50.4687C76.4733 53.9277 78.1932 58.868 78.6228 64.8515C78.6366 65.0199 78.6831 65.1815 78.758 65.3221C78.833 65.4626 78.9342 65.578 79.0527 65.6579C79.1713 65.7378 79.3036 65.78 79.4381 65.7806C79.5726 65.7813 79.7052 65.7404 79.8242 65.6616C83.5413 63.1619 86.4618 58.4101 86.9276 51.0706C87.5908 40.6274 83.5306 34.3321 81.5795 31.3071Z" fill="url(#paint0_linear_2_16)"/>
</g>
<defs>
<filter id="filter0_d_2_16" x="-21.0025" y="-2.71613" width="188.005" height="205.823" filterUnits="userSpaceOnUse" color-interpolation-filters="sRGB">
<feFlood flood-opacity="0" result="BackgroundImageFix"/>
<feColorMatrix in="SourceAlpha" type="matrix" values="0 0 0 0 0 0 0 0 0 0 0 0 0 0 0 0 0 0 127 0" result="hardAlpha"/>
<feOffset dy="57.1447"/>
<feGaussianBlur stdDeviation="40.0013"/>
<feColorMatrix type="matrix" values="0 0 0 0 1 0 0 0 0 0.419608 0 0 0 0 0.34902 0 0 0 0.24 0"/>
<feBlend mode="normal" in2="BackgroundImageFix" result="effect1_dropShadow_2_16"/>
<feBlend mode="normal" in="SourceGraphic" in2="effect1_dropShadow_2_16" result="shape"/>
</filter>
<linearGradient id="paint0_linear_2_16" x1="73" y1="28.9104" x2="90.5968" y2="52.2432" gradientUnits="userSpaceOnUse">
<stop stop-color="#FF6B59"/>
<stop offset="1" stop-color="#D35646"/>
</linearGradient>
</defs>
</svg>
